<svg xmlns="http://www.w3.org/2000/svg" viewBox="0 0 24 24" role="img" aria-label="Code">
  <path fill="#fff" d="M12 .8a11.2 11.2 0 0 0-3.54 21.83c.56.1.77-.24.77-.54v-2.1c-3.13.68-3.79-1.34-3.79-1.34-.51-1.3-1.25-1.65-1.25-1.65-1.03-.7.08-.69.08-.69 1.14.08 1.74 1.17 1.74 1.17 1.01 1.73 2.65 1.23 3.3.94.1-.73.4-1.23.72-1.51-2.5-.28-5.13-1.25-5.13-5.56 0-1.23.44-2.23 1.16-3.02-.12-.29-.5-1.43.11-2.98 0 0 .95-.3 3.1 1.15A10.8 10.8 0 0 1 12 6.12c.96 0 1.92.13 2.82.38 2.15-1.45 3.09-1.15 3.09-1.15.62 1.55.23 2.69.12 2.98.72.79 1.16 1.79 1.16 3.02 0 4.32-2.63 5.27-5.14 5.55.41.35.77 1.04.77 2.1v3.09c0 .3.2.65.78.54A11.2 11.2 0 0 0 12 .8Z"/>
</svg>
